#!OML:ASF F:\twosubjects\two\Thursday\Session 1\Rory.ASF
:FULLY-SPECIFIED
:DEGREES
440
root 14.6527 14.1885 10.0014 -161.502 -73.6294 162.963
lowerback 34.1878 3.29462 -1.89781
upperback 11.3559 1.49176 -4.21997
thorax -4.8438 0.12362 -3.86477
lowerneck -12.346 -6.20321 -8.0185
upperneck -8.08493 -7.46544 15.4979
head 0.579959 -3.71698 5.68019
rclavicle 1.05356e-014 -2.00773e-014
rhumerus 88.5983 4.3272 -79.152
rradius 30.8231
rwrist -19.7529
rhand -15.643 -7.65983
rfingers 7.12502
rthumb 10.5445 -37.3753
lclavicle 1.05356e-014 -2.00773e-014
lhumerus -35.4905 -27.2049 93.4799
lradius 101.926
lwrist -41.5631
lhand -9.26559 36.9026
lfingers 7.12502
lthumb 16.6908 66.205
rfemur -65.3154 6.94087 -7.34792
rtibia 53.9162
rfoot -1.89667 -2.72153
rtoes -30.6513
lfemur -50.2287 5.09154 6.73567
ltibia 51.0057
lfoot -3.52832 -4.51964
ltoes -20.6425
441
root 14.6001 14.2124 10.0228 -162.249 -73.111 163.355
lowerback 34.1389 3.30303 -2.16671
upperback 11.3051 1.41421 -4.19097
thorax -4.88939 0.0764114 -3.66464
lowerneck -12.329 -6.09582 -7.89897
upperneck -7.68864 -7.35961 15.0053
head 0.647711 -3.64759 5.5078
rclavicle 2.78299e-015 -7.95139e-015
rhumerus 88.3524 4.42672 -78.3026
rradius 30.4899
rwrist -19.6082
rhand -13.9917 -7.58882
rfingers 7.12502
rthumb 12.1371 -37.2168
lclavicle 2.78299e-015 -7.95139e-015
lhumerus -35.5292 -26.7626 93.3825
lradius 101.53
lwrist -41.2638
lhand -9.9053 36.0316
lfingers 7.12502
lthumb 16.0748 65.3849
rfemur -65.0051 7.02174 -6.9915
rtibia 53.9757
rfoot -2.09575 -2.49744
rtoes -32.0027
lfemur -49.701 5.00194 6.73937
ltibia 51.6273
lfoot -3.98715 -4.4465
ltoes -16.1735
442
root 14.5392 14.224 10.0468 -162.427 -72.6056 163.197
lowerback 33.9432 3.30756 -2.4367
upperback 11.3219 1.33254 -4.23218
thorax -4.8074 0.0280981 -3.53305
lowerneck -12.201 -5.96696 -7.63976
upperneck -7.64703 -7.22597 14.5064
head 0.586843 -3.58922 5.32288
rclavicle 3.69739e-014 -6.79844e-014
rhumerus 88.1415 4.50044 -77.277
rradius 30.251
rwrist -20.2929
rhand -13.6186 -7.19908
rfingers 7.12502
rthumb 12.4968 -36.8054
lclavicle 3.69739e-014 -6.79844e-014
lhumerus -35.4228 -26.4242 93.2576
lradius 101.133
lwrist -40.95
lhand -10.8852 34.6739
lfingers 7.12502
lthumb 15.1311 64.1008
rfemur -64.7452 7.06021 -6.95713
rtibia 54.0625
rfoot -2.35504 -2.17292
rtoes -32.5136
lfemur -49.2795 4.96374 6.52637
ltibia 52.2769
lfoot -4.66683 -4.36786
ltoes -14.9617
443
root 14.4788 14.2341 10.0642 -162.486 -71.8903 162.789
lowerback 33.8121 3.45536 -2.90362
upperback 11.3579 1.34332 -4.35602
thorax -4.72431 0.0164588 -3.41655
lowerneck -12.1169 -5.76832 -7.30113
upperneck -7.5384 -7.01045 13.9886
head 0.541745 -3.48738 5.12222
rclavicle 5.56597e-015 -3.53837e-014
rhumerus 87.8474 4.54093 -76.3971
rradius 30.2364
rwrist -20.8954
rhand -14.0301 -7.8633
rfingers 7.12502
rthumb 12.1001 -37.4934
lclavicle 5.56597e-015 -3.53837e-014
lhumerus -35.3399 -26.3066 92.9432
lradius 100.777
lwrist -40.6792
lhand -10.7248 35.1038
lfingers 7.12502
lthumb 15.2855 64.519
rfemur -64.5205 7.28893 -6.99079
rtibia 54.2143
rfoot -2.64885 -1.8397
rtoes -34.2242
lfemur -48.6001 5.03085 6.18314
ltibia 52.8868
lfoot -5.65112 -4.14304
ltoes -19.7231
444
root 14.4169 14.2511 10.0813 -162.643 -71.1451 162.453
lowerback 33.604 3.66252 -3.45653
upperback 11.4113 1.42363 -4.33672
thorax -4.59316 0.0327572 -3.12603
lowerneck -12.1563 -5.63552 -7.41389
upperneck -7.2733 -6.82899 13.739
head 0.597377 -3.38007 5.0698
rclavicle 3.18055e-014 3.10104e-014
rhumerus 87.5287 4.47792 -75.0611
rradius 30.2997
rwrist -21.5827
rhand -13.6167 -8.30383
rfingers 7.12502
rthumb 12.4987 -37.9101
lclavicle 3.18055e-014 3.10104e-014
lhumerus -35.1051 -26.1588 92.773
lradius 100.089
lwrist -40.6084
lhand -9.57715 36.8409
lfingers 7.12502
lthumb 16.3908 66.1684
rfemur -64.2214 7.53372 -7.02606
rtibia 54.3476
rfoot -3.06033 -1.42504
rtoes -33.8243
lfemur -47.8428 5.16925 5.80838
ltibia 53.4422
lfoot -6.59384 -3.86671
ltoes -22.5606
445
root 14.3548 14.2749 10.0952 -163.456 -70.482 162.645
lowerback 33.5002 3.84019 -3.87562
upperback 11.4817 1.50941 -4.22147
thorax -4.48184 0.0496769 -2.80946
lowerneck -12.2818 -5.5769 -7.72373
upperneck -6.87116 -6.7255 13.667
head 0.73099 -3.29944 5.09503
rclavicle -2.50469e-014 -1.98785e-014
rhumerus 87.2478 4.40418 -73.3893
rradius 30.2193
rwrist -22.7489
rhand -13.1445 -7.95986
rfingers 7.12502
rthumb 12.9539 -37.5378
lclavicle -2.50469e-014 -1.98785e-014
lhumerus -34.8756 -25.891 92.6733
lradius 99.332
lwrist -40.3909
lhand -9.78687 37.183
lfingers 7.12502
lthumb 16.1889 66.527
rfemur -63.7199 7.99485 -6.87836
rtibia 54.4546
rfoot -3.33298 -1.23998
rtoes -33.3838
lfemur -46.8838 5.26888 5.65368
ltibia 53.9437
lfoot -7.38725 -3.62738
ltoes -21.9831
446
root 14.2894 14.2938 10.1095 -164.279 -69.8838 162.727
lowerback 33.596 3.98362 -4.09381
upperback 11.561 1.57865 -4.24487
thorax -4.43106 0.0627345 -2.74331
lowerneck -12.5075 -5.54702 -7.55347
upperneck -6.4544 -6.71885 13.2843
head 0.861951 -3.27838 4.93766
rclavicle -4.49253e-014 7.27552e-014
rhumerus 86.9735 4.17424 -72.1623
rradius 29.9875
rwrist -23.969
rhand -12.6501 -8.1247
rfingers 7.12502
rthumb 13.4304 -37.6717
lclavicle -4.49253e-014 7.27552e-014
lhumerus -34.5835 -25.8488 92.4241
lradius 98.5997
lwrist -39.9731
lhand -11.2533 35.6161
lfingers 7.12502
lthumb 14.7765 65.0693
rfemur -63.0011 8.6131 -6.82531
rtibia 54.5046
rfoot -3.53121 -1.37123
rtoes -34.4136
lfemur -45.8144 5.11738 5.54928
ltibia 54.4439
lfoot -8.11079 -3.20572
ltoes -20.4194
447
root 14.218 14.3081 10.1374 -165.137 -69.3824 163.133
lowerback 33.5128 4.00186 -3.90803
upperback 11.5494 1.65121 -4.34325
thorax -4.40824 0.101023 -2.96613
lowerneck -12.6588 -5.50001 -6.98029
upperneck -6.15245 -6.73679 12.6183
head 0.922424 -3.28764 4.63038
rclavicle -6.36111e-015 5.96354e-015
rhumerus 86.4439 3.83958 -71.1503
rradius 30.038
rwrist -25.3596
rhand -11.9257 -8.60279
rfingers 7.12502
rthumb 14.1286 -38.1024
lclavicle -6.36111e-015 5.96354e-015
lhumerus -34.2784 -26.0326 92.1362
lradius 97.8349
lwrist -39.5906
lhand -11.477 34.9241
lfingers 7.12502
lthumb 14.561 64.393
rfemur -62.4981 9.00062 -6.7142
rtibia 54.5341
rfoot -3.82279 -1.31754
rtoes -36.0113
lfemur -45.1007 5.0351 5.53419
ltibia 54.9854
lfoot -8.84661 -2.8205
ltoes -18.1786
448
root 14.1445 14.3253 10.1705 -165.999 -68.9517 163.755
lowerback 33.2747 3.92637 -3.6226
upperback 11.4358 1.68183 -4.35119
thorax -4.43974 0.130996 -3.13023
lowerneck -12.7345 -5.44664 -6.5068
upperneck -5.8072 -6.73328 11.8805
head 0.982549 -3.28467 4.32112
rclavicle 4.81059e-014 9.54166e-015
rhumerus 85.7771 3.83966 -70.0721
rradius 30.2694
rwrist -26.7939
rhand -12.0615 -9.17162
rfingers 7.12502
rthumb 13.9978 -38.6803
lclavicle 4.81059e-014 9.54166e-015
lhumerus -34.159 -26.0939 92.0591
lradius 96.9907
lwrist -38.8651
lhand -11.3795 36.5836
lfingers 7.12502
lthumb 14.6549 66.0457
rfemur -62.192 9.21832 -6.52819
rtibia 54.5751
rfoot -4.11158 -1.09276
rtoes -36.6109
lfemur -44.6469 5.20823 5.52197
ltibia 55.5567
lfoot -9.53138 -2.65151
ltoes -17.1979
449
root 14.0729 14.3404 10.1993 -166.32 -68.485 163.743
lowerback 33.0277 3.91043 -3.71251
upperback 11.339 1.66932 -4.30428
thorax -4.45585 0.127512 -3.02445
lowerneck -12.7433 -5.33628 -6.38772
upperneck -5.47136 -6.60544 11.3371
head 1.04138 -3.21326 4.13908
rclavicle -3.61788e-014 -2.66371e-014
rhumerus 85.2691 4.15508 -69.825
rradius 30.1341
rwrist -26.8087
rhand -11.3866 -9.80494
rfingers 7.12502
rthumb 14.6481 -39.2676
lclavicle -3.61788e-014 -2.66371e-014
lhumerus -34.0922 -25.9009 92.1099
lradius 96.0536
lwrist -37.9248
lhand -11.0643 39.6086
lfingers 7.12502
lthumb 14.9585 69.0484
rfemur -61.8635 9.50689 -6.65968
rtibia 54.6163
rfoot -4.32025 -0.915017
rtoes -35.4948
lfemur -44.1544 5.38754 5.24568
ltibia 56.1074
lfoot -10.1332 -2.4383
ltoes -18.139
450
root 14.0042 14.3569 10.2266 -166.908 -68.0458 163.932
lowerback 32.8831 3.84643 -3.82516
upperback 11.2232 1.58048 -4.23944
thorax -4.53249 0.0856302 -2.86535
lowerneck -12.6566 -5.02348 -6.52953
upperneck -5.15486 -6.17478 11.1075
head 1.07865 -2.98569 4.11618
rclavicle 7.7526e-015 -2.90226e-014
rhumerus 84.822 4.59713 -69.9601
rradius 29.84
rwrist -26.1452
rhand -10.5754 -9.85045
rfingers 7.12502
rthumb 15.4295 -39.2546
lclavicle 7.7526e-015 -2.90226e-014
lhumerus -34.0598 -25.5401 91.966
lradius 95.377
lwrist -37.3306
lhand -9.32552 41.1246
lfingers 7.12502
lthumb 16.6331 70.4319
rfemur -61.4605 9.82145 -6.67765
rtibia 54.6363
rfoot -4.59205 -0.56436
rtoes -34.5716
lfemur -43.5693 5.55119 5.05158
ltibia 56.5845
lfoot -10.7449 -2.01058
ltoes -20.1235
451
root 13.9347 14.3851 10.2532 -167.483 -67.7609 164.01
lowerback 32.7775 3.74691 -3.80039
upperback 11.185 1.48038 -4.18265
thorax -4.53796 0.0374579 -2.78363
lowerneck -12.7431 -4.78099 -6.5851
upperneck -4.83342 -5.84606 10.8639
head 1.14997 -2.80886 4.06526
rclavicle -9.54166e-015 3.29983e-014
rhumerus 84.3387 4.8119 -69.0757
rradius 29.8011
rwrist -27.0773
rhand -11.2141 -9.75951
rfingers 7.12502
rthumb 14.8142 -39.21
lclavicle -9.54166e-015 3.29983e-014
lhumerus -33.8258 -25.4977 91.6654
lradius 94.7496
lwrist -36.8364
lhand -8.10008 41.837
lfingers 7.12502
lthumb 17.8125 71.0412
rfemur -60.7762 9.82344 -6.39956
rtibia 54.6269
rfoot -4.95382 -0.113752
rtoes -36.8249
lfemur -42.87 5.46822 4.86114
ltibia 56.9726
lfoot -11.349 -1.48168
ltoes -21.4924
452
root 13.864 14.4189 10.2762 -167.921 -67.4358 163.917
lowerback 32.1489 3.75432 -3.71001
upperback 11.6146 1.5588 -4.07024
thorax -4.32231 0.0531625 -2.90297
lowerneck -13.1577 -4.81914 -6.63453
upperneck -4.31381 -5.89165 10.6792
head 1.36505 -2.80722 3.99958
rclavicle -3.67752e-014 -4.6118e-014
rhumerus 83.7796 4.68377 -67.8597
rradius 29.9167
rwrist -28.4468
rhand -11.1649 -10.0477
rfingers 7.12502
rthumb 14.8617 -39.4947
lclavicle -3.67752e-014 -4.6118e-014
lhumerus -33.2244 -25.5769 91.4088
lradius 93.7957
lwrist -36.2264
lhand -8.73478 41.552
lfingers 7.12502
lthumb 17.2017 70.8106
rfemur -60.0613 9.9829 -6.27414
rtibia 54.5934
rfoot -5.30578 0.0973983
rtoes -38.7325
lfemur -42.054 5.24321 4.64575
ltibia 57.2936
lfoot -11.8778 -1.04299
ltoes -21.6758
453
root 13.793 14.4462 10.2986 -168.438 -67.0165 164.012
lowerback 31.8461 3.82215 -3.68731
upperback 11.6346 1.6779 -4.04509
thorax -4.16268 0.110084 -2.91794
lowerneck -13.2993 -4.85731 -6.6393
upperneck -4.05863 -5.94367 10.5794
head 1.46276 -2.82315 3.96058
rclavicle 2.20651e-014 6.2816e-014
rhumerus 83.2167 4.60554 -67.1705
rradius 29.8586
rwrist -28.9442
rhand -10.4869 -10.2147
rfingers 7.12502
rthumb 15.5147 -39.6123
lclavicle 2.20651e-014 6.2816e-014
lhumerus -32.7429 -25.4542 91.2423
lradius 92.944
lwrist -35.3593
lhand -9.13295 39.6874
lfingers 7.12502
lthumb 16.8185 68.979
rfemur -59.5686 10.4521 -6.33795
rtibia 54.5565
rfoot -5.55673 0.208974
rtoes -38.8283
lfemur -41.3117 5.27019 4.47782
ltibia 57.591
lfoot -12.2959 -0.827584
ltoes -21.3199
454
root 13.7153 14.4689 10.3278 -168.83 -66.6979 164.088
lowerback 31.5413 3.72736 -3.50595
upperback 11.5704 1.64503 -4.09181
thorax -4.09506 0.105783 -3.05343
lowerneck -13.0758 -4.72817 -6.48589
upperneck -4.17319 -5.79364 10.4635
head 1.37266 -2.75992 3.91553
rclavicle -3.99557e-014 1.98785e-015
rhumerus 82.664 4.66104 -66.7219
rradius 29.6796
rwrist -29.0355
rhand -9.70172 -10.4749
rfingers 7.12502
rthumb 16.2709 -39.8122
lclavicle -3.99557e-014 1.98785e-015
lhumerus -32.5927 -25.5055 90.9598
lradius 92.3413
lwrist -34.4189
lhand -8.42104 38.3149
lfingers 7.12502
lthumb 17.5037 67.5469
rfemur -59.103 10.5879 -6.28534
rtibia 54.5137
rfoot -5.74008 0.49922
rtoes -39.059
lfemur -40.7507 5.36221 4.27021
ltibia 57.8876
lfoot -12.7034 -0.724884
ltoes -21.604
